<?xml version="1.0" standalone="no"?>
<!DOCTYPE svg PUBLIC "-//W3C//DTD SVG 20010904//EN"
 "http://www.w3.org/TR/2001/REC-SVG-20010904/DTD/svg10.dtd">
<svg version="1.0" xmlns="http://www.w3.org/2000/svg"
 width="260.000000pt" height="260.000000pt" viewBox="0 0 260.000000 260.000000"
 preserveAspectRatio="xMidYMid meet">
<metadata>
Created by potrace 1.14, written by Peter Selinger 2001-2017
</metadata>
<g transform="translate(0.000000,260.000000) scale(0.100000,-0.100000)"
fill="#000000" stroke="none">
<path d="M960 2220 l0 -80 -150 0 -150 0 0 -85 0 -85 -95 0 -95 0 0 -165 0
-165 -80 0 -80 0 0 -330 0 -330 80 0 80 0 0 -150 0 -150 95 0 95 0 0 -90 0
-90 155 0 155 0 0 -90 0 -90 325 0 325 0 0 90 0 90 155 0 155 0 0 90 0 90 95
0 95 0 0 150 0 150 85 0 85 0 0 330 0 330 -85 0 -85 0 0 165 0 165 -95 0 -95
0 0 85 0 85 -150 0 -150 0 0 80 0 80 -335 0 -335 0 0 -80z m172 -327 l3 -78
83 -3 82 -3 0 -84 0 -85 -85 0 -85 0 0 -75 0 -76 -82 3 -83 3 -3 73 -3 72 -74
0 -75 0 0 85 0 85 75 0 75 0 0 80 0 80 85 0 84 0 3 -77z m318 -738 l0 -175
240 0 240 0 0 80 0 80 95 0 95 0 0 -80 0 -80 -95 0 -95 0 0 -150 0 -150 -155
0 -155 0 0 -90 0 -90 -325 0 -325 0 0 90 0 90 -155 0 -155 0 0 150 0 150 -90
0 -90 0 0 80 0 80 90 0 90 0 0 -80 0 -80 235 0 235 0 0 175 0 175 160 0 160 0
0 -175z"/>
<path d="M1130 895 l0 -85 160 0 160 0 0 85 0 85 -160 0 -160 0 0 -85z"/>
</g>
</svg>
